# xmcd CD database file
#
# Track frame offsets:
#	150
#	13227
#	39012
#	55719
#	69779
#	84969
#	99187
#	117702
#	134207
#	155987
#	166492
#	196249
#	210012
#	227932
#	255147
#	270579
#
# Disc length: 3919 seconds
#
# Revision: 1
# Processed by: cddbd v1.5.2PL0 Copyright (c) Steve Scherf et al.
# Submitted via: CDex 1.51
#
DISCID=cd0f4d10
DTITLE=Muddy Waters, etc. - Fathers And Sons
DYEAR=1989
DGENRE=Blues
TTITLE0=All Aboard
TTITLE1=Mean Dispostion
TTITLE2=Blow Wind Blow
TTITLE3=Can't Lose What You Ain't Never Had
TTITLE4=Walkin' Thru The Park
TTITLE5=Forty Days And Forty Nights
TTITLE6=Standin' Round Cryin'
TTITLE7=I'm Ready
TTITLE8=Twenty Four Hours
TTITLE9=Sugar Sweet
TTITLE10=Long Distance Call (Recorded Live at Super Cosmic Joy-Scout Jamboree)
TTITLE11=Baby Please Don't Go (Recorded Live at Super Cosmic Joy-Scout Jamboree)
TTITLE12=Honey Bee (Recorded Live at Super Cosmic Joy-Scout Jamboree)
TTITLE13=The Same Thing (Recorded Live at Super Cosmic Joy-Scout Jamboree)
TTITLE14=Got My Mojo Working, Part One (Recorded Live at Super Cosmic Joy-Scout Jamboree)
TTITLE15=Got My Mojo Working, Part Two (Recorded Live at Super Cosmic Joy-Scout Jamboree)
EXTD=Muddy Waters, Otis Spann, Michael Bloomfield, Paul Butterfield\nDonald "Duck" Dunn, Sam Lay and Buddy Miles YEAR: 1989
EXTT0=
EXTT1=
EXTT2=
EXTT3=
EXTT4=
EXTT5=
EXTT6=
EXTT7=
EXTT8=
EXTT9=
EXTT10=
EXTT11=
EXTT12=
EXTT13=
EXTT14=
EXTT15=
PLAYORDER=
